<?xml version="1.0" encoding="utf-8"?>
<!-- Generator: Adobe Illustrator 16.0.0, SVG Export Plug-In . SVG Version: 6.00 Build 0)  -->
<!DOCTYPE svg PUBLIC "-//W3C//DTD SVG 1.1//EN" "http://www.w3.org/Graphics/SVG/1.1/DTD/svg11.dtd">
<svg version="1.1" id="Capa_1" xmlns="http://www.w3.org/2000/svg" xmlns:xlink="http://www.w3.org/1999/xlink" x="0px" y="0px"
	 width="64px" height="64px" viewBox="0 0 64 64" enable-background="new 0 0 64 64" xml:space="preserve">
<g>
	<g>
		<g id="circle_10_">
			<g>
				<path fill="#F2F2F2" d="M33.411,36.452c-0.748,0.748-1.957,0.748-2.706,0l-1.512-1.512l-5.821,5.673h17.324l-5.818-5.626
					L33.411,36.452z M43.682,23.387h-23.27L32,34.871L43.682,23.387z M18.602,24.349v16.264h1.973l7.204-7.086L18.602,24.349z
					 M43.542,40.613h1.856V24.466l-9.062,9.061L43.542,40.613z M32,1.375C15.086,1.375,1.375,15.086,1.375,32
					c0,16.913,13.711,30.625,30.625,30.625c16.913,0,30.625-13.712,30.625-30.625C62.625,15.086,48.913,1.375,32,1.375z
					 M47.313,40.613c0,1.056-0.858,1.914-1.914,1.914H18.602c-1.057,0-1.914-0.858-1.914-1.914V23.387
					c0-1.057,0.857-1.914,1.914-1.914h26.797c1.056,0,1.914,0.857,1.914,1.914V40.613z"/>
			</g>
		</g>
	</g>
</g>
<rect x="226.5" y="201.5" fill="#F2F2F2" width="193" height="4"/>
</svg>
