<?xml version="1.0" encoding="utf-8"?>
<!-- Generator: Adobe Illustrator 16.0.0, SVG Export Plug-In . SVG Version: 6.00 Build 0)  -->
<!DOCTYPE svg PUBLIC "-//W3C//DTD SVG 1.1//EN" "http://www.w3.org/Graphics/SVG/1.1/DTD/svg11.dtd">
<svg version="1.1" id="Facebook" xmlns="http://www.w3.org/2000/svg" xmlns:xlink="http://www.w3.org/1999/xlink" x="0px" y="0px"
	 width="144.083px" height="144px" viewBox="0 0 144.083 144" enable-background="new 0 0 144.083 144" xml:space="preserve">
<path fill="#F2F2F2" d="M72.04,2.915c-38.153,0-69.083,30.931-69.083,69.084c0,38.15,30.93,69.086,69.083,69.086
	c38.152,0,69.085-30.932,69.085-69.086C141.125,33.846,110.192,2.915,72.04,2.915z M95.631,47.106c0,0.659-0.531,1.195-1.193,1.195
	H77.622v9.039h16.816c0.66,0,1.193,0.535,1.193,1.194v16.816c0,0.66-0.533,1.194-1.193,1.194H78.817v36.899
	c0,0.662-0.535,1.194-1.195,1.194H61.729c-0.661,0-1.195-0.532-1.195-1.194V76.545H49.643c-0.661,0-1.194-0.534-1.194-1.194V58.536
	c0-0.66,0.534-1.195,1.194-1.195h10.891v-6.818c0-0.098,0.012-0.193,0.033-0.283c0.009-9.713,2.087-20.824,18-20.874
	c0.035-0.003,0.07-0.005,0.107-0.005h15.764c0.66,0,1.193,0.535,1.193,1.194V47.106L95.631,47.106z"/>
<rect x="266.542" y="241.5" fill="#F2F2F2" width="193" height="4"/>
</svg>
