<?xml version="1.0" encoding="utf-8"?>
<!-- Generator: Adobe Illustrator 16.0.0, SVG Export Plug-In . SVG Version: 6.00 Build 0)  -->
<!DOCTYPE svg PUBLIC "-//W3C//DTD SVG 1.1//EN" "http://www.w3.org/Graphics/SVG/1.1/DTD/svg11.dtd">
<svg version="1.1" id="Capa_1" xmlns="http://www.w3.org/2000/svg" xmlns:xlink="http://www.w3.org/1999/xlink" x="0px" y="0px"
	 width="48px" height="48px" viewBox="0 0 48 48" enable-background="new 0 0 48 48" xml:space="preserve">
<g>
	<path fill="#F2F2F2" d="M0.667,24C0.667,11.113,11.113,0.667,24,0.667S47.333,11.113,47.333,24S36.887,47.333,24,47.333
		S0.667,36.887,0.667,24z M24.001,11.556c-3.38,0-3.804,0.015-5.131,0.075c-1.325,0.061-2.229,0.271-3.021,0.578
		c-0.818,0.317-1.513,0.743-2.205,1.436c-0.691,0.691-1.117,1.385-1.436,2.204c-0.309,0.791-0.519,1.695-0.579,3.02
		c-0.059,1.328-0.074,1.752-0.074,5.132s0.015,3.803,0.075,5.131c0.061,1.323,0.271,2.228,0.578,3.019
		c0.318,0.818,0.743,1.514,1.436,2.205c0.691,0.692,1.385,1.118,2.203,1.438c0.792,0.308,1.696,0.517,3.021,0.577
		c1.327,0.061,1.751,0.076,5.13,0.076c3.381,0,3.803-0.016,5.131-0.076c1.324-0.061,2.229-0.27,3.021-0.577
		c0.818-0.319,1.512-0.745,2.203-1.438c0.692-0.691,1.117-1.387,1.437-2.204c0.307-0.792,0.516-1.696,0.578-3.02
		c0.06-1.328,0.075-1.751,0.075-5.131s-0.016-3.804-0.075-5.131c-0.063-1.325-0.271-2.229-0.578-3.021
		c-0.319-0.819-0.744-1.513-1.437-2.204c-0.692-0.692-1.385-1.118-2.204-1.436c-0.793-0.308-1.698-0.518-3.022-0.578
		c-1.327-0.061-1.75-0.075-5.131-0.075H24.001z"/>
	<path fill="#F2F2F2" d="M22.885,13.799c0.331-0.001,0.701,0,1.116,0c3.322,0,3.717,0.012,5.029,0.07
		c1.213,0.056,1.872,0.259,2.311,0.429c0.58,0.226,0.994,0.495,1.43,0.932c0.435,0.435,0.704,0.85,0.931,1.431
		c0.171,0.438,0.374,1.097,0.429,2.311c0.06,1.312,0.072,1.705,0.072,5.026s-0.013,3.715-0.072,5.027
		c-0.055,1.213-0.258,1.872-0.429,2.31c-0.226,0.58-0.496,0.994-0.931,1.429c-0.437,0.438-0.849,0.707-1.43,0.932
		c-0.438,0.172-1.098,0.373-2.311,0.429c-1.313,0.061-1.707,0.072-5.029,0.072s-3.717-0.012-5.028-0.072
		c-1.213-0.056-1.872-0.259-2.311-0.43c-0.581-0.225-0.996-0.494-1.432-0.931c-0.436-0.435-0.705-0.849-0.932-1.43
		c-0.17-0.438-0.373-1.097-0.428-2.31c-0.06-1.313-0.072-1.706-0.072-5.029s0.013-3.716,0.072-5.027
		c0.055-1.213,0.258-1.871,0.428-2.311c0.227-0.58,0.496-0.995,0.932-1.431s0.851-0.705,1.432-0.932
		c0.438-0.171,1.098-0.373,2.311-0.429c1.148-0.052,1.593-0.067,3.912-0.07V13.799z M30.644,15.864
		c-0.824,0-1.493,0.668-1.493,1.493c0,0.824,0.669,1.493,1.493,1.493s1.493-0.669,1.493-1.493
		C32.137,16.532,31.468,15.864,30.644,15.864z M24.001,17.609c-3.529,0-6.391,2.861-6.391,6.391s2.861,6.39,6.391,6.39
		c3.528,0,6.391-2.86,6.391-6.39S27.529,17.609,24.001,17.609z"/>
	<path fill="#F2F2F2" d="M24.001,19.852c2.291,0,4.147,1.857,4.147,4.148s-1.856,4.147-4.147,4.147S19.853,26.291,19.853,24
		S21.71,19.852,24.001,19.852z"/>
</g>
</svg>
